PathFileType	4	(X/Y/Z)	/Users/itak/Documents/Research/Walk-IL/dataset/trc/00270_00010.trc
DataRate	CameraRate	NumFrames	NumMarkers	Units	OrigDataRate	OrigDataStartFrame	OrigNumFrames
100.000000	100.000000	4	55	mm	100.000000	171	456
Frame#	Time	RPSI			LPSI			L3			STRN			T10			C7			CLAV			RBAK			LBAK			LSHO			LUPA			LAEL			LAOL			LWTS			LWPS			LFRA			LIFD			LHPS			LHTS			RSHO			RUPA			RAEL			RAOL			RWTS			RWPS			RFRA			RIFD			RHTS			RHPS			RBHD			LFHD			RFHD			LBHD			LHIP			RASI			LKNE			LANK			LTIP			LTOE			LMT1			LMT5			LHEE			RKNE			RTHI			RANK			RTIP			RTOE			RMT1			RMT5			RHEE			RHIP			LTHI			LASI			*53			*54			
		X1	Y1	Z1	X2	Y2	Z2	X3	Y3	Z3	X4	Y4	Z4	X5	Y5	Z5	X6	Y6	Z6	X7	Y7	Z7	X8	Y8	Z8	X9	Y9	Z9	X10	Y10	Z10	X11	Y11	Z11	X12	Y12	Z12	X13	Y13	Z13	X14	Y14	Z14	X15	Y15	Z15	X16	Y16	Z16	X17	Y17	Z17	X18	Y18	Z18	X19	Y19	Z19	X20	Y20	Z20	X21	Y21	Z21	X22	Y22	Z22	X23	Y23	Z23	X24	Y24	Z24	X25	Y25	Z25	X26	Y26	Z26	X27	Y27	Z27	X28	Y28	Z28	X29	Y29	Z29	X30	Y30	Z30	X31	Y31	Z31	X32	Y32	Z32	X33	Y33	Z33	X34	Y34	Z34	X35	Y35	Z35	X36	Y36	Z36	X37	Y37	Z37	X38	Y38	Z38	X39	Y39	Z39	X40	Y40	Z40	X41	Y41	Z41	X42	Y42	Z42	X43	Y43	Z43	X44	Y44	Z44	X45	Y45	Z45	X46	Y46	Z46	X47	Y47	Z47	X48	Y48	Z48	X49	Y49	Z49	X50	Y50	Z50	X51	Y51	Z51	X52	Y52	Z52	X53	Y53	Z53	X54	Y54	Z54	X55	Y55	Z55	

172	1.71	257.2888793945312	990.14111328125	52.77773284912109	246.7025909423828	989.075927734375	-121.5244903564453	271.5886535644531	1061.396240234375	-40.77520751953125	526.9020385742188	1236.845703125	-65.10474395751953	261.7981567382812	1182.516967773438	-48.54663467407227	313.9680786132812	1425.464233398438	-76.99739074707031	467.5211181640625	1339.423706054688	-70.09429168701172	262.0584106445312	1292.010131835938	5.239190578460693	293.1391906738281	1384.287841796875	-177.0731048583984	380.6216125488281	1384.950927734375	-231.5907592773438	329.3437194824219	1273.81494140625	-299.8013916015625	287.9833068847656	1078.266479492188	-313.7994689941406	234.5865936279297	1074.77978515625	-245.3334045410156	315.9757385253906	841.9373168945312	-287.8064880371094	267.9402465820312	843.0874633789062	-341.6592102050781	273.7006225585938	974.6204223632812	-328.1366882324219	263.7018432617188	661.197509765625	-289.130126953125	247.0464172363281	757.105712890625	-340.3040771484375	305.1743469238281	741.7119140625	-314.4908142089844	381.0914001464844	1411.413696289062	80.54196166992188	369.4251708984375	1361.885375976562	151.1342010498047	304.8109130859375	1113.0224609375	220.2741546630859	284.775390625	1095.064331054688	126.8658065795898	424.9135437011719	898.8919677734375	219.8416748046875	363.6674499511719	894.3025512695312	278.5746154785156	322.9795837402344	1048.751831054688	245.1084594726562	448.8862609863281	714.7923583984375	242.9940795898438	458.0851135253906	788.2332153320312	255.6632537841797	397.4459838867188	786.0198974609375	291.1807556152344	340.8273010253906	1587.020263671875	-14.91906833648682	510.9610290527344	1617.078369140625	-137.8190460205078	510.8421936035156	1619.8310546875	-45.19778442382812	341.8003234863281	1571.901000976562	-162.0062866210938	307.6168518066406	942.5088500976562	-223.5269927978516	479.3426818847656	947.5645751953125	66.08837127685547	408.5774536132812	475.0274658203125	-170.8318176269531	312.1147155761719	44.07604598999023	-100.5869522094727	356.9692687988281	249.7181396484375	-143.5506591796875	522.7620849609375	33.07791900634766	-45.63768768310547	450.1764526367188	26.71026802062988	-5.822295665740967	437.4097290039062	43.93642044067383	-114.7406616210938	266.430419921875	39.90578079223633	-40.89613723754883	514.5064697265625	491.4028625488281	139.1545867919922	463.7151184082031	747.1970825195312	146.1144256591797	122.56396484375	274.9818725585938	134.1710205078125	438.3397827148438	396.69580078125	131.6750030517578	252.6323547363281	136.8000030517578	75.45334625244141	209.1543579101562	175.2841949462891	35.83111190795898	183.3305816650391	189.4652404785156	152.0396118164062	86.80843353271484	314.1748962402344	85.50978851318359	367.5863037109375	940.0907592773438	146.9267730712891	389.9203796386719	614.6175537109375	-202.0607147216797	448.9536437988281	948.429931640625	-184.3000335693359	nan	nan	nan	nan	nan	nan	
173	1.72	253.2299652099609	990.1451416015625	52.98521423339844	242.7383117675781	989.0311889648438	-121.3489151000977	267.540283203125	1060.99755859375	-40.19094085693359	521.309326171875	1237.132446289062	-65.97509765625	257.0180053710938	1181.64404296875	-47.68317794799805	307.5743103027344	1424.856323242188	-76.7283935546875	461.5406188964844	1339.522827148438	-70.79591369628906	256.6422729492188	1291.23291015625	6.065807819366455	286.2131042480469	1383.505249023438	-176.5555725097656	373.2505493164062	1384.646118164062	-231.8114929199219	321.1267700195312	1273.661376953125	-299.3792114257812	279.1310424804688	1078.3046875	-312.9865112304688	226.8042907714844	1074.757934570312	-243.7792205810547	308.2950134277344	842.1285400390625	-287.9204711914062	259.2775573730469	843.0556640625	-340.9315795898438	264.7722473144531	974.6063842773438	-327.2897338867188	257.48095703125	660.9525756835938	-288.7809143066406	238.9709930419922	756.9686279296875	-339.3660278320312	297.6074829101562	741.89208984375	-314.6519775390625	375.7838439941406	1411.32666015625	80.33174896240234	364.9366149902344	1361.657348632812	151.0338134765625	303.3340148925781	1112.229736328125	220.9279022216797	282.3797607421875	1094.087646484375	127.7022171020508	424.8533020019531	898.9772338867188	219.4371185302734	364.3360900878906	894.1519165039062	278.8887023925781	322.25732421875	1048.159301757812	245.6171722412109	450.3554077148438	715.1207885742188	243.0210418701172	459.1823120117188	788.6748657226562	255.2882232666016	398.9352416992188	786.1697387695312	291.4876708984375	334.3650817871094	1586.815673828125	-15.381667137146	504.0523376464844	1616.939697265625	-138.8967437744141	504.1942138671875	1619.90283203125	-46.28500366210938	334.8904113769531	1571.392944335938	-162.4263153076172	303.8079223632812	942.6693725585938	-223.2673950195312	475.16796875	946.9745483398438	66.69733428955078	406.9303894042969	475.2876892089844	-171.028564453125	312.1013793945312	43.94674301147461	-100.7620239257812	356.2633666992188	249.7323303222656	-143.8140106201172	522.732421875	33.07605361938477	-45.6112060546875	450.1411743164062	26.65731239318848	-5.791254997253418	437.4244384765625	43.87563705444336	-114.7568664550781	266.4760131835938	39.77385711669922	-41.06902694702148	496.9332580566406	486.1795349121094	140.5104827880859	455.3048095703125	743.8128051757812	146.3311309814453	103.2290344238281	272.1593322753906	132.6090698242188	419.5858154296875	391.9712524414062	132.3413543701172	230.8173217773438	132.6954650878906	71.66130828857422	188.1511535644531	172.6838073730469	32.57650756835938	162.1892852783203	185.0656433105469	148.9578247070312	68.27686309814453	313.0011901855469	84.60205078125	363.1504211425781	939.4262084960938	147.2648773193359	387.4907531738281	614.7718505859375	-202.2341461181641	445.0424499511719	948.3731689453125	-183.7011260986328	nan	nan	nan	nan	nan	nan	
174	1.73	249.14208984375	990.089599609375	53.2095947265625	238.7273101806641	988.9503784179688	-121.1711959838867	263.454345703125	1060.528198242188	-39.53934860229492	515.665283203125	1237.339721679688	-66.76451873779297	252.1515808105469	1180.69677734375	-46.72492218017578	301.1031494140625	1424.156005859375	-76.3973388671875	455.4923706054688	1339.526611328125	-71.43920135498047	251.1843566894531	1290.387817382812	6.974373817443848	279.2078552246094	1382.61474609375	-175.9634552001953	365.787353515625	1384.223754882812	-231.9561004638672	312.8417358398438	1273.3818359375	-298.8489990234375	270.3078002929688	1078.224243164062	-312.0917358398438	219.1493377685547	1074.55859375	-242.1263427734375	300.8993530273438	842.2339477539062	-288.017822265625	250.9153289794922	842.8905029296875	-340.16064453125	255.9779663085938	974.4532470703125	-326.3736572265625	251.7145385742188	660.60693359375	-288.419677734375	231.2971649169922	756.6619262695312	-338.4106750488281	290.4798278808594	742.0053100585938	-314.7961730957031	370.4471130371094	1411.193725585938	80.16114807128906	360.4057006835938	1361.405395507812	150.9625244140625	301.8705444335938	1111.451049804688	221.6360626220703	279.9776916503906	1093.105590820312	128.6401672363281	424.8175964355469	899.0946655273438	218.9586944580078	365.1166687011719	894.0177612304688	279.1818542480469	321.5382995605469	1047.577758789062	246.1471862792969	451.8533935546875	715.4747314453125	242.8126068115234	460.3286437988281	789.1281127929688	254.7301635742188	400.5111083984375	786.3220825195312	291.6575317382812	327.8220825195312	1586.528076171875	-15.81003952026367	497.048828125	1616.701416015625	-139.9644012451172	497.4757080078125	1619.883178710938	-47.35660552978516	327.8892211914062	1570.7919921875	-162.8152160644531	300.0503845214844	942.79052734375	-222.9603271484375	470.8880004882812	946.3560791015625	67.39353942871094	405.5108337402344	475.5384521484375	-171.2102203369141	312.1005859375	43.81139755249023	-100.9700698852539	355.7328186035156	249.7228851318359	-144.0803527832031	522.70654296875	33.0698127746582	-45.5811653137207	450.1063842773438	26.60177421569824	-5.750894546508789	437.4048461914062	43.80834579467773	-114.7779846191406	266.5164184570312	39.64920806884766	-41.26908493041992	479.0255126953125	481.2892456054688	141.6485290527344	446.7017822265625	740.5297241210938	146.5423736572266	84.19535827636719	268.3946533203125	130.8497161865234	400.6971435546875	387.3598022460938	132.8203430175781	209.8967590332031	128.1666717529297	67.72914886474609	167.9496612548828	169.4896087646484	29.23046684265137	141.6777191162109	180.0160827636719	145.7120666503906	49.94111633300781	310.671630859375	83.47609710693359	358.6071472167969	938.7321166992188	147.6796875	385.2738037109375	614.9036254882812	-202.4063262939453	441.1707458496094	948.2904052734375	-183.0087585449219	nan	nan	nan	nan	nan	nan	
175	1.74	245.0037841796875	989.9818725585938	53.44838333129883	234.6840362548828	988.8325805664062	-120.9892578125	259.3051147460938	1059.9853515625	-38.82444000244141	509.964599609375	1237.459350585938	-67.46753692626953	247.1738586425781	1179.685180664062	-45.66928100585938	294.5563659667969	1423.370849609375	-75.99858856201172	449.3706359863281	1339.42626953125	-72.01939392089844	245.7205657958984	1289.486938476562	7.967784404754639	272.1210327148438	1381.617797851562	-175.2897338867188	358.2399597167969	1383.68115234375	-232.0166015625	304.5010986328125	1272.960815429688	-298.2055358886719	261.522216796875	1078.009033203125	-311.1054382324219	211.6081695556641	1074.1669921875	-240.3764953613281	293.7651977539062	842.2407836914062	-288.0912780761719	242.84326171875	842.5816650390625	-339.3443908691406	247.3202056884766	974.1460571289062	-325.3839721679688	246.3637390136719	660.1600341796875	-288.066162109375	224.0016021728516	756.186767578125	-337.4480285644531	283.7763671875	742.0582275390625	-314.9335021972656	365.0857543945312	1411.009887695312	80.03488922119141	355.8537292480469	1361.125610351562	150.9342346191406	300.3972778320312	1110.690307617188	222.4031219482422	277.542724609375	1092.123168945312	129.6841278076172	424.7901000976562	899.2589111328125	218.416259765625	365.9841613769531	893.906982421875	279.453125	320.8019714355469	1047.013793945312	246.7052154541016	453.3792114257812	715.8717041015625	242.3766632080078	461.5103149414062	789.6118774414062	253.9988403320312	402.168212890625	786.489501953125	291.6947326660156	321.1941528320312	1586.15673828125	-16.20085525512695	489.9421691894531	1616.372680664062	-141.015869140625	490.6788024902344	1619.780517578125	-48.40593719482422	320.7908325195312	1570.095336914062	-163.1710968017578	296.3180236816406	942.86474609375	-222.6043853759766	466.5070495605469	945.7045288085938	68.18278503417969	404.2861328125	475.7832641601562	-171.3717193603516	312.1116027832031	43.67064666748047	-101.2114028930664	355.3613586425781	249.6946105957031	-144.3436737060547	522.6788330078125	33.05517959594727	-45.54629516601562	450.0750122070312	26.55333137512207	-5.711820602416992	437.3458251953125	43.73413467407227	-114.8063507080078	266.5419921875	39.53021621704102	-41.49803924560547	460.8782958984375	476.7806701660156	142.5608367919922	437.8672790527344	737.3697509765625	146.7552490234375	65.47630310058594	263.8381042480469	128.9078826904297	381.7357177734375	382.9374389648438	133.1124877929688	189.8317413330078	123.2417373657227	63.76688766479492	148.5359954833984	165.7444305419922	25.88219833374023	121.7936553955078	174.4405364990234	142.3851013183594	31.83781051635742	307.3262023925781	82.11130523681641	353.9294738769531	938.0040283203125	148.1671600341797	383.2573547363281	615.0262451171875	-202.5742340087891	437.3299255371094	948.1798706054688	-182.2260131835938	nan	nan	nan	nan	nan	nan	
